<?xml version="1.0" standalone="no"?>
<!DOCTYPE svg PUBLIC "-//W3C//DTD SVG 20010904//EN"
 "http://www.w3.org/TR/2001/REC-SVG-20010904/DTD/svg10.dtd">
<svg version="1.0" xmlns="http://www.w3.org/2000/svg"
 width="512.000000pt" height="512.000000pt" viewBox="0 0 512.000000 512.000000"
 preserveAspectRatio="xMidYMid meet">

<g transform="translate(0.000000,512.000000) scale(0.100000,-0.100000)"
fill="#000000" stroke="none">
<path d="M750 3511 c-181 -58 -305 -242 -286 -425 4 -33 179 -740 389 -1571
l383 -1510 262 -3 c144 -1 262 2 262 6 0 5 -38 259 -85 565 -47 306 -85 561
-85 567 0 6 -34 10 -91 10 l-90 0 2 573 1 572 -61 410 c-80 532 -80 531 -110
595 -30 65 -110 149 -172 180 -100 52 -220 63 -319 31z"/>
<path d="M2432 3514 c-142 -38 -251 -150 -288 -296 -13 -49 -15 -88 -11 -173
4 -60 13 -245 22 -410 8 -165 18 -328 21 -362 l6 -63 373 0 373 0 6 63 c3 34
15 249 26 477 22 450 21 460 -29 559 -30 57 -102 134 -156 166 -91 53 -233 69
-343 39z"/>
<path d="M4130 3516 c-111 -32 -215 -117 -258 -209 -32 -69 -43 -127 -118
-632 -50 -343 -63 -454 -55 -467 8 -12 11 -177 11 -537 l0 -520 -92 -3 -92 -3
-82 -550 c-46 -302 -83 -560 -84 -573 l0 -22 262 2 262 3 373 1495 c205 822
377 1522 382 1555 30 174 -62 351 -224 431 -63 31 -85 37 -157 40 -50 2 -101
-2 -128 -10z"/>
<path d="M2240 1108 c-1 -66 51 -1060 56 -1085 l4 -23 259 0 259 0 6 63 c3 34
15 255 26 492 11 237 22 467 26 513 l6 82 -321 0 -321 0 0 -42z"/>
</g>
</svg>
